<svg width="160" height="36" viewBox="0 0 160 36" fill="none" xmlns="http://www.w3.org/2000/svg">
    <path d="M51.7834 19.2775C56.9581 19.2775 60.0474 16.8832 60.0474 13.7553C60.0474 6.37945 49.505 9.4688 49.505 4.1783C49.505 2.78809 50.4704 1.59097 52.0151 1.59097C55.3748 1.59097 54.2549 6.64977 57.4601 6.64977C58.6958 6.64977 59.6612 5.76159 59.6612 4.6417C59.6612 2.24746 56.5719 0.00768455 51.7062 0.00768455C47.0722 0.00768455 43.867 2.40192 43.867 5.68435C43.867 13.2919 54.6024 10.0867 54.6024 15.2227C54.6024 16.9605 53.3667 17.7714 51.7834 17.7714C47.9217 17.7714 49.2347 12.674 45.8364 12.674C44.5234 12.674 43.5194 13.3305 43.5194 14.7979C43.5194 17.1922 46.8018 19.2775 51.7834 19.2775Z" fill="white"/>
    <path d="M72.5405 19.3161C78.1786 19.3161 82.3492 15.2227 82.3492 9.73912C82.3492 4.25553 77.9083 0.00768455 71.9613 0.00768455C66.5549 0.00768455 61.9595 3.9466 61.9595 9.54603C61.9595 14.9138 66.3232 19.3161 72.5405 19.3161ZM73.2356 17.6169C69.7215 17.6169 67.6362 11.2838 67.6362 7.34488C67.6362 3.67628 68.8719 1.70682 71.1889 1.70682C74.4714 1.70682 76.5567 7.80828 76.5567 12.0175C76.5567 15.5703 75.3209 17.6169 73.2356 17.6169Z" fill="white"/>
    <path d="M103.437 14.991V0.857253C103.437 0.200768 102.974 0.0463008 101.97 0.162151L97.0266 0.895871C96.5632 0.973103 96.2543 1.32065 96.2543 1.70682V1.82267C96.2543 2.67224 97.7989 3.05841 97.7989 4.75755V12.5968C97.7989 15.3386 96.3315 17.1149 94.4779 17.1149C92.354 17.1149 91.2727 15.4544 91.2727 11.863L91.3885 0.857253C91.3885 0.200768 90.8093 0.0463008 89.8053 0.162151L84.9395 0.895871C84.4375 0.973103 84.1286 1.32065 84.1286 1.70682V1.82267C84.1286 2.67224 85.6346 3.05841 85.6346 4.75755V11.2838C85.6346 16.5743 88.8398 19.3161 92.8174 19.3161C95.4819 19.3161 97.3741 18.3507 98.4168 16.6515C98.5326 18.5437 99.6525 19.1616 101.854 19.1616C104.016 19.1616 105.291 18.9299 105.291 18.0417C105.291 16.6129 103.437 18.0417 103.437 14.991Z" fill="white"/>
    <path d="M118.959 0.00768455C116.372 0.00768455 114.557 1.35927 113.708 3.83075V0.934487C113.708 0.200768 113.36 -0.262633 112.472 0.162151L107.838 2.32469C107.336 2.55639 107.027 2.86533 107.027 3.25149V3.40596C107.027 4.37138 108.803 4.48723 108.803 6.18637V15.2227C108.803 16.8446 107.297 17.1535 107.297 18.119V18.2734C107.297 18.6982 107.645 18.9299 108.185 18.9299H115.329C115.831 18.9299 116.179 18.6982 116.179 18.2734V18.119C116.179 17.1535 114.248 16.8446 114.248 15.2227V7.49934C114.248 5.37542 114.789 3.25149 116.295 3.25149C118.38 3.25149 117.029 6.57254 120.041 6.57254C121.894 6.57254 122.512 5.14372 122.512 3.52181C122.512 1.55236 121.238 0.00768455 118.959 0.00768455Z" fill="white"/>
    <path d="M133.05 19.3161C138.07 19.3161 140.696 16.1881 140.928 13.0215C141.005 12.172 140.039 12.0175 139.576 12.6354C138.765 14.0256 137.298 15.3386 134.942 15.3386C131.003 15.3386 128.377 11.9789 128.377 6.84286C128.377 3.98521 129.767 1.70682 131.968 1.70682C135.328 1.66821 135.096 7.15179 138.417 7.34488C140.194 7.42211 140.812 6.41807 140.812 5.41404C140.812 2.40192 137.259 -0.0309329 132.818 0.00768455C127.605 0.0463008 123.087 3.67628 123.087 9.62327C123.087 14.8365 127.219 19.3161 133.05 19.3161Z" fill="white"/>
    <path d="M158.686 13.0602C157.952 14.2573 156.33 15.2999 154.284 15.2999C151.967 15.2999 150.19 14.0642 149.186 11.9403L157.759 8.03998C158.802 7.57658 159.458 6.80424 159.458 5.49127C159.458 2.94256 157.218 0.00768455 152.16 0.00768455C147.101 0.00768455 142.814 3.90798 142.814 9.50741C142.814 15.4544 146.792 19.3161 152.16 19.3161C157.141 19.3161 159.767 15.7247 159.999 13.4849C160.037 12.674 159.149 12.4809 158.686 13.0602ZM151.465 1.70682C153.55 1.70682 154.554 4.44862 154.554 5.83882C154.554 6.64977 154.245 7.30626 153.55 7.65381L148.568 10.1639C148.298 9.15986 148.182 8.03998 148.182 6.84286C148.182 3.90798 149.418 1.70682 151.465 1.70682Z" fill="white"/>
    <path d="M16.9142 0.39514C12.9752 0.39514 11.7009 0.00897217 9.22941 0.00897217C3.82306 0.00897217 0.0772336 3.2914 0.0772336 8.1185C0.0772336 12.5208 3.93891 15.7646 9.11356 15.7646C9.61558 15.7646 10.1176 15.726 10.6196 15.6874C12.1257 15.9963 13.0139 17.3093 13.0139 19.2401C13.0139 21.4027 11.5078 22.8701 9.11356 22.8701C4.5954 22.7929 5.44497 17.0004 2.27839 17.0004C0.695102 17.0004 0 18.0816 0 19.1629C0 22.175 3.32104 24.492 8.99771 24.492C14.4813 24.492 18.6905 22.3681 18.6905 19.0857C18.6905 17.039 17.4934 15.4557 14.0565 14.6834C16.7211 13.409 18.3816 11.0148 18.3816 7.96403C18.3816 6.11042 17.4548 4.29544 16.2191 3.02108C17.4162 2.67353 18.8836 2.828 19.1539 1.55364C19.3856 0.858541 18.9995 0.39514 16.9142 0.39514ZM5.5222 5.56979C5.5222 3.21417 6.60347 1.70811 8.37984 1.70811C11.083 1.70811 12.898 6.45798 12.898 10.1652C12.898 12.4436 11.8167 14.0269 9.96313 14.0269C7.53027 14.0269 5.5222 9.66317 5.5222 5.56979Z" fill="#9FDCEF"/>
    <path d="M31.6609 19.3174C37.299 19.3174 41.4696 15.224 41.4696 9.7404C41.4696 4.25682 37.0287 0.00897217 31.0817 0.00897217C25.6753 0.00897217 21.0799 3.94789 21.0799 9.54732C21.0799 14.9151 25.4436 19.3174 31.6609 19.3174ZM32.356 17.6182C28.8419 17.6182 26.7566 11.2851 26.7566 7.34616C26.7566 3.67757 27.9923 1.70811 30.3094 1.70811C33.5918 1.70811 35.6771 7.80956 35.6771 12.0188C35.6771 15.5715 34.4413 17.6182 32.356 17.6182Z" fill="#9FDCEF"/>
    <path d="M39.7983 35.1586V27.0724H41.2205V28.1067C41.7689 27.331 42.4702 26.9431 43.3243 26.9431C44.1078 26.9431 44.7856 27.2369 45.3576 27.8246C45.9296 28.4044 46.2155 29.1919 46.2155 30.187C46.2155 31.1664 45.9296 31.9499 45.3576 32.5376C44.7856 33.1174 44.1078 33.4073 43.3243 33.4073C42.4702 33.4073 41.7689 33.043 41.2205 32.3143V35.1586H39.7983ZM42.9952 32.1733C43.4967 32.1733 43.9159 31.9891 44.2528 31.6209C44.5975 31.2526 44.7699 30.7668 44.7699 30.1635C44.7699 29.5758 44.5975 29.0979 44.2528 28.7296C43.908 28.3613 43.4888 28.1772 42.9952 28.1772C42.5016 28.1772 42.0745 28.3652 41.7141 28.7413C41.3615 29.1174 41.1852 29.5993 41.1852 30.187C41.1852 30.7668 41.3615 31.2448 41.7141 31.6209C42.0745 31.9891 42.5016 32.1733 42.9952 32.1733Z" fill="white"/>
    <path d="M48.6123 33.2781V27.0724H50.0344V28.471C50.4732 27.4132 51.2058 26.9079 52.2322 26.9549V28.4593H52.15C51.5075 28.4593 50.9942 28.6708 50.6103 29.0939C50.2264 29.5092 50.0344 30.1165 50.0344 30.9157V33.2781H48.6123Z" fill="white"/>
    <path d="M57.151 33.4191C56.2108 33.4191 55.4272 33.1057 54.8004 32.4788C54.1735 31.852 53.8601 31.0881 53.8601 30.187C53.8601 29.2859 54.1775 28.522 54.8121 27.8951C55.4468 27.2604 56.2343 26.9431 57.1745 26.9431C58.1148 26.9431 58.8983 27.2565 59.5251 27.8834C60.1598 28.5102 60.4771 29.2781 60.4771 30.187C60.4771 31.0802 60.1598 31.8442 59.5251 32.4788C58.8905 33.1057 58.0991 33.4191 57.151 33.4191ZM57.1745 32.185C57.7387 32.185 58.1931 31.993 58.5379 31.6091C58.8826 31.2252 59.055 30.7511 59.055 30.187C59.055 29.6307 58.8748 29.1605 58.5144 28.7766C58.1539 28.3848 57.6995 28.1889 57.151 28.1889C56.5947 28.1889 56.1442 28.3809 55.7994 28.7648C55.4546 29.1488 55.2823 29.6228 55.2823 30.187C55.2823 30.7355 55.4625 31.2056 55.8229 31.5974C56.1833 31.9891 56.6339 32.185 57.1745 32.185Z" fill="white"/>
    <path d="M63.183 33.2781V28.2947H62.3956V27.1077H63.183V26.661C63.183 25.9715 63.3515 25.4583 63.6884 25.1214C64.0175 24.7923 64.4837 24.6277 65.087 24.6277C65.4866 24.6277 65.8706 24.6826 66.2388 24.7923V25.9911C65.9333 25.8892 65.6551 25.8383 65.4044 25.8383C64.8559 25.8383 64.5816 26.1517 64.5816 26.7786V27.1194H66.2271V28.2947H64.6052V33.2781H63.183Z" fill="white"/>
    <path d="M70.9543 33.4191C70.0454 33.4191 69.2854 33.1174 68.6742 32.5141C68.0709 31.9108 67.7692 31.1311 67.7692 30.1752C67.7692 29.2742 68.0552 28.5102 68.6272 27.8834C69.1992 27.2565 69.924 26.9431 70.8015 26.9431C71.7418 26.9431 72.4705 27.2644 72.9876 27.9069C73.5126 28.5415 73.7751 29.3329 73.7751 30.281C73.7751 30.4534 73.7672 30.5866 73.7516 30.6806H69.1914C69.2697 31.1742 69.4695 31.5621 69.7908 31.8442C70.112 32.1184 70.5077 32.2555 70.9778 32.2555C71.589 32.2555 72.1492 32.0087 72.6585 31.5151L73.493 32.2555C72.8505 33.0312 72.0043 33.4191 70.9543 33.4191ZM69.1796 29.7404H72.3647C72.3177 29.2624 72.1571 28.8706 71.8828 28.565C71.6086 28.2595 71.2442 28.1067 70.7898 28.1067C70.3588 28.1067 69.9984 28.2595 69.7085 28.565C69.4186 28.8628 69.2423 29.2546 69.1796 29.7404Z" fill="white"/>
    <path d="M78.2708 33.3956C77.2992 33.3956 76.4217 33.0861 75.6381 32.4671L76.2728 31.5033C76.9466 32.0126 77.6244 32.2673 78.3061 32.2673C78.6117 32.2673 78.8467 32.2085 79.0113 32.091C79.1837 31.9656 79.2698 31.7932 79.2698 31.5738C79.2698 31.4642 79.2385 31.3701 79.1758 31.2918C79.121 31.2056 79.0191 31.1272 78.8702 31.0567C78.7214 30.9862 78.596 30.9353 78.4941 30.9039C78.3923 30.8726 78.2238 30.8216 77.9888 30.7511L77.883 30.7159C77.6636 30.6532 77.4755 30.5944 77.3188 30.5396C77.17 30.4769 77.0015 30.3946 76.8134 30.2928C76.6254 30.1909 76.4726 30.0812 76.3551 29.9637C76.2375 29.8383 76.1396 29.6816 76.0612 29.4935C75.9829 29.3055 75.9437 29.0939 75.9437 28.8589C75.9437 28.2869 76.1513 27.8285 76.5666 27.4838C76.9897 27.139 77.5186 26.9666 78.1533 26.9666C78.9603 26.9666 79.7204 27.2017 80.4334 27.6718L79.8693 28.6826C79.2267 28.2908 78.643 28.0949 78.118 28.0949C77.8438 28.0949 77.6283 28.1537 77.4716 28.2712C77.3227 28.3887 77.2483 28.5455 77.2483 28.7413C77.2483 28.8745 77.3149 28.996 77.4481 29.1057C77.5891 29.2154 77.7263 29.2977 77.8595 29.3525C78.0005 29.3995 78.2238 29.474 78.5294 29.5758C78.5451 29.5837 78.5647 29.5915 78.5882 29.5993C78.6117 29.6072 78.6313 29.6111 78.6469 29.6111C78.9212 29.6973 79.1523 29.7835 79.3404 29.8696C79.5284 29.948 79.7243 30.0577 79.928 30.1987C80.1396 30.3398 80.3002 30.5161 80.4099 30.7276C80.5196 30.9313 80.5744 31.1703 80.5744 31.4446C80.5744 32.0714 80.359 32.5533 79.928 32.8902C79.4971 33.2271 78.9447 33.3956 78.2708 33.3956Z" fill="white"/>
    <path d="M84.9729 33.3956C84.0013 33.3956 83.1237 33.0861 82.3402 32.4671L82.9748 31.5033C83.6487 32.0126 84.3264 32.2673 85.0081 32.2673C85.3137 32.2673 85.5488 32.2085 85.7133 32.091C85.8857 31.9656 85.9719 31.7932 85.9719 31.5738C85.9719 31.4642 85.9405 31.3701 85.8779 31.2918C85.823 31.2056 85.7211 31.1272 85.5723 31.0567C85.4234 30.9862 85.298 30.9353 85.1962 30.9039C85.0943 30.8726 84.9259 30.8216 84.6908 30.7511L84.585 30.7159C84.3656 30.6532 84.1776 30.5944 84.0209 30.5396C83.872 30.4769 83.7035 30.3946 83.5155 30.2928C83.3274 30.1909 83.1746 30.0812 83.0571 29.9637C82.9396 29.8383 82.8416 29.6816 82.7633 29.4935C82.6849 29.3055 82.6457 29.0939 82.6457 28.8589C82.6457 28.2869 82.8534 27.8285 83.2687 27.4838C83.6918 27.139 84.2207 26.9666 84.8553 26.9666C85.6624 26.9666 86.4224 27.2017 87.1354 27.6718L86.5713 28.6826C85.9288 28.2908 85.3451 28.0949 84.8201 28.0949C84.5458 28.0949 84.3304 28.1537 84.1737 28.2712C84.0248 28.3887 83.9503 28.5455 83.9503 28.7413C83.9503 28.8745 84.0169 28.996 84.1501 29.1057C84.2912 29.2154 84.4283 29.2977 84.5615 29.3525C84.7025 29.3995 84.9259 29.474 85.2314 29.5758C85.2471 29.5837 85.2667 29.5915 85.2902 29.5993C85.3137 29.6072 85.3333 29.6111 85.349 29.6111C85.6232 29.6973 85.8544 29.7835 86.0424 29.8696C86.2305 29.948 86.4263 30.0577 86.6301 30.1987C86.8416 30.3398 87.0022 30.5161 87.1119 30.7276C87.2216 30.9313 87.2765 31.1703 87.2765 31.4446C87.2765 32.0714 87.061 32.5533 86.6301 32.8902C86.1991 33.2271 85.6467 33.3956 84.9729 33.3956Z" fill="white"/>
    <path d="M89.6859 26.1204V24.7688H91.2138V26.1204H89.6859ZM89.7446 33.2781V27.0724H91.1668V33.2781H89.7446Z" fill="white"/>
    <path d="M96.9156 33.4191C95.9754 33.4191 95.1918 33.1057 94.565 32.4788C93.9381 31.852 93.6247 31.0881 93.6247 30.187C93.6247 29.2859 93.9421 28.522 94.5767 27.8951C95.2114 27.2604 95.9989 26.9431 96.9391 26.9431C97.8794 26.9431 98.6629 27.2565 99.2897 27.8834C99.9244 28.5102 100.242 29.2781 100.242 30.187C100.242 31.0802 99.9244 31.8442 99.2897 32.4788C98.6551 33.1057 97.8637 33.4191 96.9156 33.4191ZM96.9391 32.185C97.5033 32.185 97.9577 31.993 98.3025 31.6091C98.6472 31.2252 98.8196 30.7511 98.8196 30.187C98.8196 29.6307 98.6394 29.1605 98.279 28.7766C97.9185 28.3848 97.4641 28.1889 96.9156 28.1889C96.3593 28.1889 95.9088 28.3809 95.564 28.7648C95.2192 29.1488 95.0469 29.6228 95.0469 30.187C95.0469 30.7355 95.2271 31.2056 95.5875 31.5974C95.9479 31.9891 96.3985 32.185 96.9391 32.185Z" fill="white"/>
    <path d="M102.63 33.2781V27.0724H104.052V28.0362C104.546 27.3075 105.192 26.9431 105.992 26.9431C106.681 26.9431 107.222 27.1586 107.614 27.5895C108.005 28.0205 108.201 28.6003 108.201 29.329V33.2781H106.779V29.7521C106.779 29.2663 106.662 28.8941 106.427 28.6356C106.199 28.3692 105.874 28.236 105.451 28.236C105.036 28.236 104.699 28.3731 104.44 28.6473C104.182 28.9216 104.052 29.2977 104.052 29.7756V33.2781H102.63Z" fill="white"/>
    <path d="M116.065 33.2781H114.655V32.5141C114.154 33.1096 113.484 33.4073 112.645 33.4073C112.026 33.4073 111.501 33.2389 111.07 32.9019C110.647 32.5572 110.436 32.0792 110.436 31.4681C110.436 30.8021 110.667 30.2967 111.129 29.9519C111.591 29.6072 112.199 29.4348 112.951 29.4348C113.554 29.4348 114.126 29.521 114.667 29.6933V29.5758C114.667 29.1449 114.534 28.8158 114.267 28.5886C114.009 28.3613 113.633 28.2477 113.139 28.2477C112.575 28.2477 111.983 28.377 111.364 28.6356L110.976 27.4955C111.744 27.1508 112.532 26.9784 113.339 26.9784C114.24 26.9784 114.918 27.2056 115.372 27.6601C115.834 28.1145 116.065 28.7609 116.065 29.5993V33.2781ZM114.69 31.0332V30.6806C114.267 30.5161 113.793 30.4338 113.268 30.4338C112.822 30.4338 112.473 30.52 112.222 30.6924C111.971 30.8647 111.846 31.1076 111.846 31.4211C111.846 31.7031 111.96 31.9264 112.187 32.091C112.414 32.2555 112.7 32.3378 113.045 32.3378C113.523 32.3378 113.915 32.2164 114.22 31.9735C114.534 31.7306 114.69 31.4171 114.69 31.0332Z" fill="white"/>
    <path d="M118.779 33.2781V24.6983H120.202V33.2781H118.779Z" fill="white"/>
</svg>
